<svg id="Laag_1" data-name="Laag 1" xmlns="http://www.w3.org/2000/svg" viewBox="0 0 12.39 16"><defs><style>.cls-1{fill:#fff;}</style></defs><title>icon-pinterest</title><path class="cls-1" d="M6.88,0C2.51,0,.31,3.13.31,5.74A3.54,3.54,0,0,0,2.19,9.25.32.32,0,0,0,2.65,9l.19-.74a.45.45,0,0,0-.13-.51A2.65,2.65,0,0,1,2.1,6a4.35,4.35,0,0,1,4.52-4.4c2.47,0,3.82,1.51,3.82,3.52C10.45,7.74,9.27,10,7.53,10A1.42,1.42,0,0,1,6.08,8.21a19.68,19.68,0,0,0,.81-3.26A1.23,1.23,0,0,0,5.65,3.57c-1,0-1.77,1-1.77,2.38A3.53,3.53,0,0,0,4.17,7.4L3,12.41A10.3,10.3,0,0,0,3,15.9a.12.12,0,0,0,.22.05,9.83,9.83,0,0,0,1.66-3c.11-.41.65-2.53.65-2.53a2.63,2.63,0,0,0,2.25,1.15c3,0,5-2.69,5-6.3A5.49,5.49,0,0,0,6.88,0Z" transform="translate(-0.31 0)"/></svg>