<svg id="Laag_1" data-name="Laag 1" xmlns="http://www.w3.org/2000/svg" viewBox="0 0 16 16"><defs><style>.cls-1{fill:#fff;fill-rule:evenodd;}</style></defs><title>icon-instagram</title><path class="cls-1" d="M2.05,0H13.95A2.06,2.06,0,0,1,16,2.05V13.95A2.06,2.06,0,0,1,13.95,16H2.05A2.06,2.06,0,0,1,0,13.95V2.05A2.06,2.06,0,0,1,2.05,0Zm9.6,1.78a.72.72,0,0,0-.72.72V4.22a.72.72,0,0,0,.72.72h1.81a.72.72,0,0,0,.72-.72V2.5a.72.72,0,0,0-.72-.72Zm2.54,5H12.78A4.69,4.69,0,0,1,13,8.14,4.9,4.9,0,0,1,8,13,4.9,4.9,0,0,1,3,8.14a4.68,4.68,0,0,1,.21-1.37H1.78v6.76a.64.64,0,0,0,.64.64H13.56a.64.64,0,0,0,.64-.64V6.77ZM8,4.85A3.16,3.16,0,0,0,4.8,8,3.16,3.16,0,0,0,8,11.08,3.16,3.16,0,0,0,11.23,8,3.16,3.16,0,0,0,8,4.85Z" transform="translate(0)"/></svg>