<svg id="Laag_1" data-name="Laag 1" xmlns="http://www.w3.org/2000/svg" viewBox="0 0 16 13"><defs><style>.cls-1{fill:#fff;}</style></defs><title>icon-twitter</title><path class="cls-1" d="M16,2a6.54,6.54,0,0,1-1.88.52A3.29,3.29,0,0,0,15.56.74a6.57,6.57,0,0,1-2.08.8,3.29,3.29,0,0,0-5.59,3A9.32,9.32,0,0,1,1.11,1.1a3.29,3.29,0,0,0,1,4.38A3.27,3.27,0,0,1,.64,5.07v0A3.29,3.29,0,0,0,3.28,8.33a3.28,3.28,0,0,1-1.48.06,3.28,3.28,0,0,0,3.07,2.28,6.58,6.58,0,0,1-4.08,1.4A6.7,6.7,0,0,1,0,12,9.29,9.29,0,0,0,5,13.5a9.28,9.28,0,0,0,9.34-9.34c0-.14,0-.28,0-.42A6.66,6.66,0,0,0,16,2Z" transform="translate(0 -0.5)"/></svg>