<svg id="Laag_1" data-name="Laag 1" xmlns="http://www.w3.org/2000/svg" viewBox="0 0 15.99 16"><defs><style>.cls-1{fill:#fff;}</style></defs><title>icon-google</title><polygon class="cls-1" points="13.81 2.39 13.81 0.22 12.72 0.22 12.72 2.39 10.55 2.39 10.55 3.48 12.72 3.48 12.72 5.66 13.81 5.66 13.81 3.48 15.99 3.48 15.99 2.39 13.81 2.39"/><path class="cls-1" d="M10.18,0H5.46C3.07,0,1.07,1.76,1.07,3.71A3.39,3.39,0,0,0,4.63,7.27l.46,0a2,2,0,0,0-.25.92A1.65,1.65,0,0,0,5.52,9.4H4.66C1.92,9.41,0,11.29,0,13.1S2.32,16,5.06,16c3.12,0,5-1.77,5-3.55,0-1.43-.31-2.15-1.83-3.29-.44-.33-1.39-1-1.39-1.45s.15-.79.95-1.41A3.21,3.21,0,0,0,9.22,3.77,3,3,0,0,0,7.88,1.11H9.12ZM8.58,12.14a2.19,2.19,0,0,1,.06.51c0,1.44-.93,2.57-3.59,2.57-1.89,0-3.26-1.2-3.26-2.64S3.39,9.94,5.29,10a4.08,4.08,0,0,1,1.23.2C7.54,10.88,8.37,11.32,8.58,12.14Zm-3-5.59a3.09,3.09,0,0,1-2.7-2.87C2.63,2,3.48.73,4.75.77S7.11,2.17,7.33,3.84,6.82,6.59,5.55,6.55Z" transform="translate(-0.01)"/></svg>