<?xml version="1.0" encoding="utf-8"?>
<!-- Generator: Adobe Illustrator 21.0.0, SVG Export Plug-In . SVG Version: 6.00 Build 0)  -->
<svg version="1.1" id="logo" xmlns="http://www.w3.org/2000/svg" xmlns:xlink="http://www.w3.org/1999/xlink" x="0px" y="0px"
	 viewBox="0 0 16 16" style="enable-background:new 0 0 16 16;" xml:space="preserve">
<style type="text/css">
	.st0{fill:#FFFFFF;}
</style>
<title>tumblr-logo-white</title>
<path class="st0" d="M12.6,14.9c-0.5,0.6-1.8,1-2.9,1H9.6c-3.7,0-4.5-2.7-4.5-4.3V7.1H3.6C3.5,7.1,3.3,7,3.3,6.8c0,0,0,0,0,0V4.7
	c0-0.2,0.1-0.4,0.3-0.5c1.9-0.7,2.5-2.3,2.6-3.6c0-0.3,0.2-0.5,0.5-0.5h2.2c0.2,0,0.3,0.1,0.3,0.3V4h2.6c0.2,0,0.3,0.1,0.3,0.3v2.5
	c0,0.2-0.1,0.3-0.3,0.3H9.2v4.1c0,1,0.7,1.3,1.1,1.3c0.4,0,0.8-0.1,1-0.2c0.1-0.1,0.3-0.1,0.4-0.1c0.1,0,0.2,0.1,0.2,0.2l0.7,2
	C12.7,14.6,12.7,14.8,12.6,14.9z"/>
</svg>
