<svg id="Laag_1" data-name="Laag 1" xmlns="http://www.w3.org/2000/svg" viewBox="0 0 16 15.29"><defs><style>.cls-1{fill:#fff;}</style></defs><title>icon-linkedin</title><path class="cls-1" d="M12.05,5.09A3.41,3.41,0,0,0,9,6.79v0h0l0,0V5.33H5.53c0,1,0,10.32,0,10.32H9V9.88A2.33,2.33,0,0,1,9.07,9a1.88,1.88,0,0,1,1.76-1.26c1.24,0,1.74.95,1.74,2.33v5.52H16V9.73C16,6.56,14.31,5.09,12.05,5.09Z" transform="translate(0 -0.35)"/><path class="cls-1" d="M1.94.35a1.79,1.79,0,1,0,0,3.57h0a1.79,1.79,0,1,0,0-3.57Z" transform="translate(0 -0.35)"/><rect class="cls-1" x="0.2" y="4.98" width="3.43" height="10.32"/></svg>